<svg fill="none" height="24" viewBox="0 0 24 24" width="24" xmlns="http://www.w3.org/2000/svg"><path clip-rule="evenodd" d="M11 3a1 1 0 1 1 2 0v.787c2.252.283 3.839 1.538 4.356 3.284.127.425-.226.813-.67.813h-.708c-.356 0-.652-.257-.798-.58-.481-1.067-1.626-1.72-3.204-1.72-.761 0-1.426.157-1.958.438L8.603 4.607c.677-.413 1.488-.695 2.397-.815zM4.97 6.03l-.5-.5a.75.75 0 0 1 1.06-1.06l.5.5 1.082 1.082 1.596 1.595 3.06 3.06 5.839 5.84 1.423 1.423.5.5a.75.75 0 1 1-1.06 1.06l-.5-.5-.993-.993c-.783 1.156-2.158 1.924-3.977 2.16V21a1 1 0 1 1-2 0v-.759c-2.571-.223-4.314-1.574-4.83-3.505-.112-.425.239-.805.679-.805h.727c.358 0 .655.258.8.585.517 1.172 1.826 1.9 3.612 1.9 1.822 0 3.065-.729 3.444-1.924l-3.57-3.57-1.639-.429c-2.38-.603-3.75-2.066-3.75-4.18 0-.247.019-.488.057-.722l-1.56-1.56z" fill="currentColor" fill-rule="evenodd"></path></svg>