<svg xmlns="http://www.w3.org/2000/svg" width="32" height="32" viewBox="0 0 32 32"><path fill="#bd081c" fill-rule="evenodd" d="M16 2.67a13.33 13.33 0 0 0-4.86 25.75c-.12-1.06-.22-2.68.05-3.83l1.56-6.63s-.4-.8-.4-1.98c0-1.85 1.08-3.23 2.41-3.23 1.14 0 1.7.85 1.7 1.87 0 1.15-.74 2.86-1.11 4.44-.32 1.33.66 2.41 1.97 2.41 2.37 0 4.2-2.5 4.2-6.1 0-3.2-2.3-5.43-5.58-5.43a5.77 5.77 0 0 0-6.02 5.79c0 1.14.44 2.37 1 3.04.1.13.12.25.09.38l-.37 1.52c-.06.24-.2.3-.45.17-1.66-.77-2.7-3.2-2.7-5.16 0-4.2 3.05-8.07 8.8-8.07 4.63 0 8.22 3.3 8.22 7.7 0 4.6-2.9 8.3-6.91 8.3-1.36 0-2.63-.7-3.06-1.54l-.83 3.17a14.9 14.9 0 0 1-1.66 3.5A13.33 13.33 0 1 0 16 2.67"></path></svg>